/* XPM */
static char *ee75ec80680945b38464a7d3f1285f08[] = {
/* columns rows colors chars-per-pixel */
"68 43 235 2 ",
"   c None",
".  c #0C0604",
"X  c #1C0502",
"o  c #1C0B0A",
"O  c #160705",
"+  c #1A1717",
"@  c #1B100E",
"#  c #230604",
"$  c #2B0907",
"%  c #2B0B07",
"&  c #330A06",
"*  c #3C0C09",
"=  c #380C07",
"-  c #28110E",
";  c #38110B",
":  c #231D1C",
">  c #261715",
",  c #3A1D19",
"<  c #342317",
"1  c #211E21",
"2  c #242324",
"3  c #2A2B25",
"4  c #2B2C2C",
"5  c #262629",
"6  c #342A29",
"7  c #2E332A",
"8  c #2D3627",
"9  c #32322C",
"0  c #343B2C",
"q  c #373828",
"w  c #2A2C33",
"e  c #252A32",
"r  c #352F37",
"t  c #2A3239",
"y  c #343333",
"u  c #363B33",
"i  c #3A3C34",
"p  c #3B3C3C",
"a  c #353739",
"s  c #1E2128",
"d  c #420D09",
"f  c #4B120C",
"g  c #48130B",
"h  c #55140D",
"j  c #5B150E",
"k  c #561A0E",
"l  c #581F11",
"z  c #4B1811",
"x  c #592A18",
"c  c #512F18",
"v  c #65331A",
"b  c #4E362F",
"n  c #36432C",
"m  c #3A442C",
"M  c #3B4A2D",
"N  c #39472C",
"B  c #3F512E",
"V  c #3A4438",
"C  c #434B2C",
"Z  c #45472D",
"A  c #43532D",
"S  c #4B542C",
"D  c #46592F",
"F  c #4C5A2E",
"G  c #525C2D",
"H  c #59582C",
"J  c #42443D",
"K  c #454A3D",
"L  c #464A35",
"P  c #475C30",
"I  c #4A5E31",
"U  c #485234",
"Y  c #525D33",
"T  c #565839",
"R  c #5B4833",
"E  c #6A4828",
"W  c #74592C",
"Q  c #795628",
"!  c #725935",
"~  c #704E2E",
"^  c #56632F",
"/  c #5B642E",
"(  c #5C692F",
")  c #4D6131",
"_  c #536331",
"`  c #5B6533",
"'  c #5C6A31",
"]  c #5C653A",
"[  c #67672E",
"{  c #73672D",
"}  c #636E31",
"|  c #67693A",
" . c #78683A",
".. c #657033",
"X. c #69733D",
"o. c #67713B",
"O. c #68411F",
"+. c #2D3949",
"@. c #373C46",
"#. c #2C3B50",
"$. c #374448",
"%. c #374659",
"&. c #2E4153",
"*. c #384C66",
"=. c #39526E",
"-. c #395478",
";. c #3A4E70",
":. c #434344",
">. c #45474A",
",. c #4B4B4C",
"<. c #484945",
"1. c #585A48",
"2. c #484C56",
"3. c #535354",
"4. c #58595B",
"5. c #495353",
"6. c #6A5A50",
"7. c #5E634D",
"8. c #6A6A47",
"9. c #77674A",
"0. c #6D7544",
"q. c #6B784B",
"w. c #717A4D",
"e. c #73754A",
"r. c #6A645C",
"t. c #727D54",
"y. c #766A52",
"u. c #454D67",
"i. c #49546A",
"p. c #555966",
"a. c #475675",
"s. c #525977",
"d. c #5C677A",
"f. c #5F6163",
"g. c #686868",
"h. c #797164",
"j. c #636B7A",
"k. c #777472",
"l. c #86552C",
"z. c #986C37",
"x. c #8B6A33",
"c. c #B3723D",
"v. c #867656",
"b. c #886E4B",
"n. c #847565",
"m. c #A77142",
"M. c #748453",
"N. c #768E59",
"B. c #778757",
"V. c #79975D",
"C. c #7D9F60",
"Z. c #848C5D",
"A. c #839A5F",
"S. c #869E61",
"D. c #948B6E",
"F. c #89A364",
"G. c #99AA6B",
"H. c #9EB16D",
"J. c #A4B56F",
"K. c #AABA71",
"L. c #B0BD74",
"P. c #B0C073",
"I. c #3B5984",
"U. c #3C5B8C",
"Y. c #395781",
"T. c #3F5C94",
"R. c #4B5D8D",
"E. c #455A84",
"W. c #545E89",
"Q. c #415D95",
"!. c #445E9A",
"~. c #565F90",
"^. c #4B629D",
"/. c #47619A",
"(. c #53669D",
"). c #586193",
"_. c #54628D",
"`. c #697A9C",
"'. c #717A8E",
"]. c #4963A5",
"[. c #5266A4",
"{. c #5769AA",
"}. c #5D6EB3",
"|. c #5B6DBD",
" X c #5669B3",
".X c #5570B2",
"XX c #626AA5",
"oX c #616FB9",
"OX c #6775B9",
"+X c #5D6FC5",
"@X c #5E6FC8",
"#X c #5F70C7",
"$X c #6471C2",
"%X c #6271CB",
"&X c #6A77C8",
"*X c #6573D3",
"=X c #6A76D5",
"-X c #6C79D8",
";X c #626FC0",
":X c #73839C",
">X c #7B93BC",
",X c #7285A8",
"<X c #7188DA",
"1X c #7698DC",
"2X c #7085CC",
"3X c #7EA1D7",
"4X c #768FE3",
"5X c #84858A",
"6X c #939498",
"7X c #898F96",
"8X c #8B99AE",
"9X c #A6A7A7",
"0X c #B4B4B5",
"qX c #AAAEB6",
"wX c #91A3BE",
"eX c #98B4DB",
"rX c #8EAED8",
"tX c #A7B5D1",
"yX c #91B3E7",
"uX c #ACBFE4",
"iX c #B8C1D8",
"pX c #ACC4E9",
"aX c #B7CBEC",
"sX c #BFCFEF",
"dX c #C7C7CD",
"fX c #CACED8",
"gX c #C6D3EB",
"hX c #CCD6F1",
"jX c #D5DCF1",
"kX c #D5DDE9",
"lX c #DDE1EA",
"zX c #DEE4F5",
"xX c #E8EBF5",
"cX c #F6F7FA",
"vX c #E8E9ED",
/* pixels */
"                                                    %.2.u.u.a.a.a.s.s.s.s.i.p.3.4.<.                                                    ",
"                                              2.u.a.E._.[.{.|.;X$XoX$X&X&X&X2X8X7X:X4.5.p                                               ",
"                                          %.*.a.R.[.[. X X@X*X*X=X=X=X-X-X4XyXgXkX6X4.y 9 :.>.                                          ",
"                                        *.a.R.^.^.{.]. X+X@X@X*X=X=X=X=X-X4X3XyXqX<.6 b 4.k.5Xf.                                        ",
"                                      ;.E./.!.^.^.{.[.{.|.@X*X*X*X=X=X=X-X-X4X<Xp.: 3.5X0XdXdX6Xk.                                      ",
"                                  &.Y.T.T.!.!.!.^.^.(.{.|.@X#X#X*X*X=X=X-X-X&Xu.2 f.rXrX7X3.6 3 g.6Xf.                                  ",
"                    g.6.7 3 2 e &.-.U.T.T.!.!.]./.^.^.{. X+X@X@X%X*X*X*X=X-XXXr @.2X,Xp.6 b <.f.5XdX0Xk.                                ",
"                8.y.9.8.Z 0 7 +.;.U.U.T.T.Q.!.!./.^.^.[.{. X@X@X@X*X*X=X=X=X_.r i.<Xs.4 2.:XwXtXuXlXvX9Xk.                              ",
"          J V I !  .x. .H C $.=.Y.U./.]./.T.T./.!.!.].].(..X|.+X@X%X*X*X=X*XW.5 %.W.r : d.8XeXpXaXhXzXzX0XD.                            ",
"      0 0 B A B I I Y Y M a *.I.U.U..X.X/.T.T.a.a.a.E.R.^.{.}.|.@X@X%X*X=X).@.> 5 r 9 6 7 >._.uXpXsXjXxXxXfXg.                          ",
"    u M A P P P I I I I n &.-.U.T.T.^.].T.I.=.+.t e t %.E.[.{.}.;X@X@X@XXX@.1 @.r.h.h.6.J 6 i :XeXaXhXjXxXxX9X4.                        ",
"  0 M A P P ) P I I I I V *.U.T.].].!.T.I.%.e > @ : 3 4 +.a.^.{.(.R.W.~.u.1 r 6.n.n.v.y.6.L b $.'.uXsXjXxXcXvX9X@.                      ",
"u m P P ) P P P B ) ) ) +.*.T.]. X].].Y.#.- # $ 6 4.n.k.6 e *.2.4 + > 1 1 , b R ! W W W { W ! < + '.pXgXjXxXcXcX6Xp                     ",
"n A P P P P ) ) ) ) ) B n *.U.].].].T.1 O $ = * d c 6.n.r.4 + y 3.h.r.>., d h j l c < v W W W R < p ,XpXgXjXxXcX0Xf.                    ",
"N D P P P ) ) ) ) ) ) ) n #.Y.T.!.!.;.o # = d d = = ; b b 5 y r.D.n.b.R , d j j g # o < O.W W E , < 4.wXtXdXvXcXdXk.                    ",
"C P P I P P ) ) ) ) ) ) B V *.U.T.I.+.X & d * d d d * = - : 1.n.b.6.~ z ; d j j g % # ; v Q Q x z - 2 3.r.:XfXvXlX6X:.                  ",
"m F I I I ) ) ) ) ) _ ) ) D $.=.I.=.t # = * * * = = = $ X - b E W l.l.x = = f j h h h h j l l j h % o $.5.<.5XkXlX9X<.y                 ",
"m S I I I I I ) ) _ ) _ ^ F B $.=.=.e X * d d = & $ # # X & x E Q Q l.x ; # d h j j j j h f d f f $ : `.>X:X7XgXlX0X,.y q               ",
"9 Z ^ I ) ) ) ) ) ) ) _ ) _ F B $.&.#.o $ = = & # X . . O $ z v l.Q O.z % X $ d h j j j f & X # o r d.3XrXeXpXsXjXiXf.U Z J 3.          ",
"  m F ^ ) ) ) ) ) ) ^ _ _ _ ^ _ n V &.e o X # X X O . . o $ h l v x l ; # 1 6 - = d g g = X O o o p.`.:Xd.j.eXaXhXdXg.T |  .9.r.        ",
"  q C G ) ) ) ) _ ) _ ) _ _ _ ] | 1.U $.@.e + + + s e #.#.> & & $ & = - 1 s 5 t r 6 6 6 r @.a.s.@.a y y y 2.yXpXsXiXg.1.y.b.z.b.9.      ",
"    q C ^ ^ ) ^ ) _ _ ^ _ _ ] 8.b.b.| U V V s e &.*.-.-.;.+.: O O X o 2 %.%.5 s %.i.i.W.).XX$X&XXXs.p.p.W.`.yXuXpXtX4.1.M.Z.x.z.x.y.    ",
"    9 3 m ^ ' _ ) _ ) ^ _ `  .c.c.z.{ _ ^ S V $.%.-.I.I.I.-.*.#.s . 5 ;.R.R.*.w 5 @.~.XXXXOX$X=X-X-X&X<X1X1XyXyXeX>X,.1.S.J.F.v. .1.1.  ",
"      6 8 A ^ ] ] _ ^ ^ ` } x.z.x.[ / ^ ( ^ ) M U $.*.-.-.E.I.-.*.+ w E./.^.R.u.5 : u.).{.oXoX%X=X=X-X<X<X1X1XrX>Xj.K 8.S.J.K.G.v.1.K   ",
"        7 0 C ^ ' ] _ _ / [ { [ H / ^ ' ( ( ( _ ) ) 1.$.*.i.=.=.=.+ 1 a.!.^.^.R.%.2 w i.{.}.XXoX$X%X&X&X&X&XOX`.d.1.] M.F.H.K.L.G.t.1.  ",
"          8 8 C G ' ' ^ ^ ^ ^ ^ ' ' ( ( ' ( ( } ' ..M.X.o._ A V @.w 2 %.E.!.^.].^.u.: 6 s.{.}.oXoX$X;XXXd.p.:.V D 8.N.C.F.G.H.K.P.G.M.f.",
"          3 3 n m Y ' ' _ ( _ ( _ ' ( ' ( ( ( ( ' ....o.X.o.' ( F A m n $.$.%.%.*.u.a y >.a.a.s.a.u.%.:.L L Y ] q.M.V.C.F.F.G.K.K.P.Z.4.",
"            3 0 n m U _ ' ' ( ' ' ' ' ( ( ' ' } ' ' } ..X...} } } } } [ / H S C C C Z C Z Z C U R U T _ o.0.e.M.M.N.N.V.V.F.F.G.H.K.Z.U ",
"              7 8 n N M I ] ' ' ( ( ( ( ( ( ' } } } } ....} } } } } } } } } [ } [ ( / / ` ` [ | b.e.0.0.0.w.w.w.M.M.N.N.V.C.F.F.G.G.B.L ",
"                3 0 n N M M S ^ ( ( } ( ( } ( } } } } } } } } } } } } } } } } } } ....} ..} } { c.b.9.0.0.0.w.e.w.M.B.B.N.V.C.C.F.F.q.Z ",
"                  8 0 n M M m M ) / ( ( } } } } } } } } } } } } } } } } } } } } } } ..} } ..} { z.z. .0.0.0.0.e.w.w.M.B.N.N.V.C.A.M.] K ",
"                  3 3 8 n M n n M C F / ( } } } } } } } } } } } } } } } } } } } } } } } ..} } [ { z. .o.0.0.0.q.q.w.t.M.M.N.N.V.N.| U K ",
"                    2 3 7 7 n V N N n M M S G ' } } } } } } } } } } } } } } } } } } } } } } } ..} { { ..X.X.0.0.0.w.w.t.M.M.w.0.] C 0   ",
"                      4 p p 0 0 n n M M N M C A S F ^ [ [ } } } } } } } } } } } } } } } } } } } ..{ { ..X.X.0.0.0.0.0.0.0.o.] S V b     ",
"                        y @.$.u u 0 n n M M M M m m A S F ^ ` } } } } } } } } } } } } } } } } } } } } ....X.X.X.X.X.X.o./ G C i V       ",
"                        4 y b $.V a a n m M M M M M M M M C S I / ( / ( ( [ } } } } } } } } } } } ..} ..o.....o...| ` F C q 9           ",
"                            y y @.$.:.J p i 0 0 N M B B B B A B B A A A S S S S F F G G G / / / ` / ^ G G F S S S A m q q               ",
"                              y y y p :.:.:.p V 0 0 n N M A A A A A A B A A A B A A S F F F F F F F F F F F S D C n i i                 ",
"                                    9 a a :.>.>.<.@.u u 0 n m m M A A D D D D D P ) I ) F I ) ) ) ) _ ) F F A C u J                     ",
"                                      a 4 6 a :.<.>.>.:.:.p t 9 8 n n M B B D D P ) F I I ) ) ) ) ) I D M n u                           ",
"                                              :.:.:.:.:.:.:.:.,.<.,.,.<.:.J :.J J J J K K K <.K i 7 7                                   ",
"                                                    ,.:.p p :.>.<.,.3.3.3.3.3.3.3.3.3.3.3.4.4.,.a y                                     ",
"                                                          p p :.:.:.@.:.<.>.,.,.3.,.3.3.3.4.3.$.4                                       "
};
