/* XPM */
static char *_19d688bdc7d4200c6780d19db676196[] = {
/* columns rows colors chars-per-pixel */
"70 42 242 2 ",
"   c None",
".  c #191516",
"X  c #151916",
"o  c #161719",
"O  c #161A1C",
"+  c #191A1C",
"@  c #181718",
"#  c #161C23",
"$  c #191D24",
"%  c #151E2A",
"&  c #191E2A",
"*  c #162225",
"=  c #1A2025",
"-  c #16222D",
";  c #1B222C",
":  c #182828",
">  c #162433",
",  c #1A2433",
"<  c #1C2934",
"1  c #1A253B",
"2  c #1B2B3C",
"3  c #16283A",
"4  c #1D3036",
"5  c #222D3D",
"6  c #222833",
"7  c #20262E",
"8  c #1B2B43",
"9  c #1C2C4B",
"0  c #192843",
"q  c #1C3144",
"w  c #1D314C",
"e  c #1C394C",
"r  c #1C2D52",
"t  c #1F2C5A",
"y  c #1E3254",
"u  c #1D335B",
"i  c #1C3956",
"p  c #222D42",
"a  c #202D4D",
"s  c #233345",
"d  c #24354C",
"f  c #253A4E",
"g  c #28374B",
"h  c #212F57",
"j  c #243953",
"k  c #2B3C55",
"l  c #21335C",
"z  c #233D5C",
"x  c #253857",
"c  c #1E3364",
"v  c #1F3868",
"b  c #1F3872",
"n  c #1F2E61",
"m  c #233C63",
"M  c #223969",
"N  c #233767",
"B  c #213D74",
"V  c #223C7C",
"C  c #223672",
"Z  c #22425B",
"A  c #2A455C",
"S  c #32445C",
"D  c #244363",
"F  c #2C4564",
"G  c #2C4A6B",
"H  c #274A68",
"J  c #334A65",
"K  c #314C6C",
"L  c #374C67",
"P  c #28526C",
"I  c #3B516A",
"U  c #35526F",
"Y  c #274A75",
"T  c #2A5374",
"R  c #2E5C7B",
"E  c #2C567A",
"W  c #345273",
"Q  c #39577A",
"!  c #1F4055",
"~  c #425B7C",
"^  c #425976",
"/  c #233E82",
"(  c #253F88",
")  c #244285",
"_  c #25448D",
"`  c #294B88",
"'  c #2E5C87",
"]  c #335D84",
"[  c #3A5A86",
"{  c #254591",
"}  c #264A94",
"|  c #264B9D",
" . c #294B9C",
".. c #274797",
"X. c #2C5597",
"o. c #325C95",
"O. c #336282",
"+. c #35668B",
"@. c #3A678A",
"#. c #386797",
"$. c #3B7499",
"%. c #36708E",
"&. c #264CA0",
"*. c #294EA4",
"=. c #294FAA",
"-. c #2A52A4",
";. c #2B53AC",
":. c #2B57A9",
">. c #2B55B1",
",. c #2E5BB5",
"<. c #2D5BBB",
"1. c #315DBA",
"2. c #3D78A3",
"3. c #3265BC",
"4. c #3C74BB",
"5. c #3763AA",
"6. c #425D82",
"7. c #446385",
"8. c #496688",
"9. c #436993",
"0. c #486B97",
"q. c #487398",
"w. c #537292",
"e. c #427DA4",
"r. c #4B79A7",
"t. c #527CAC",
"y. c #5579A7",
"u. c #5A7EB6",
"i. c #325FC4",
"p. c #2E5CC8",
"a. c #2F61C4",
"s. c #3265C5",
"d. c #356BC4",
"f. c #3363CC",
"g. c #356BCC",
"h. c #386FCB",
"j. c #3A76CB",
"k. c #366CD4",
"l. c #376AD4",
"z. c #3771D4",
"x. c #3973D4",
"c. c #3A74DB",
"v. c #3C7BDD",
"b. c #3876DB",
"n. c #3D7CE4",
"m. c #3E7CEA",
"M. c #3A74E5",
"N. c #4378C6",
"B. c #427EE2",
"V. c #4484A8",
"C. c #4584B2",
"Z. c #468BB3",
"A. c #4989B6",
"S. c #5985B4",
"D. c #5D8CBC",
"F. c #5987B5",
"G. c #4A94B9",
"H. c #5B86B0",
"J. c #628DBD",
"K. c #55A4B9",
"L. c #3E83D8",
"P. c #3E81E2",
"I. c #4789CC",
"U. c #5C8EC2",
"Y. c #4D97C8",
"T. c #5699C9",
"R. c #4487D9",
"E. c #4895DA",
"W. c #5598D7",
"Q. c #6598C9",
"!. c #649ED5",
"~. c #57A7C9",
"^. c #56A2D4",
"/. c #5AAADB",
"(. c #58AAD2",
"). c #5EB4DB",
"_. c #5DB6D7",
"`. c #4EA0D9",
"'. c #6AA2D4",
"]. c #6AA7D9",
"[. c #66B9DB",
"{. c #72B5DE",
"}. c #4285E4",
"|. c #448AE5",
" X c #4285EB",
".X c #448CEC",
"XX c #498DEC",
"oX c #4792E4",
"OX c #4692EB",
"+X c #4995EC",
"@X c #4B9BEC",
"#X c #4C99E3",
"$X c #458AF1",
"%X c #4994F2",
"&X c #4C9AF3",
"*X c #4793F4",
"=X c #5195EF",
"-X c #4EA2ED",
";X c #53A4E6",
":X c #52A3EB",
">X c #54ABEE",
",X c #58ADE6",
"<X c #5DB4E5",
"1X c #5DB6EC",
"2X c #5EBAEC",
"3X c #57B3ED",
"4X c #51A3F4",
"5X c #54ABF4",
"6X c #56A9F6",
"7X c #59B5F3",
"8X c #5CBAF4",
"9X c #59B5F7",
"0X c #4DA1F1",
"qX c #6BA6E2",
"wX c #65BBE8",
"eX c #63BEF3",
"rX c #72B1E6",
"tX c #64C3DE",
"yX c #5EC2F3",
"uX c #5FC1EC",
"iX c #63C2E3",
"pX c #64C4EC",
"aX c #69C9EA",
"sX c #63C4F4",
"dX c #65CBF5",
"fX c #6ACDF4",
"gX c #66C5F6",
"hX c #73C7F2",
"jX c #6CD4F4",
"kX c #6DD6F8",
"lX c #71DBF6",
"zX c #72DBF9",
"xX c #76D8F8",
"cX c #6ECFEA",
"vX c #74E3FA",
"bX c #76EAFA",
"nX c #79E8F7",
"mX c #77E9F6",
"MX c #5FC3DB",
"NX c #83EBF9",
"BX c #85F4FB",
"VX c #82DEF6",
/* pixels */
"                                                                                                                                            ",
"                                                        $ $ $ = = 7 ; ; 7 = ; = = $ $ + $ +                                                 ",
"                                        $ * * : < 5 s f k S S L I I I I I I I I L S k k g s 5 , - * * &                                     ",
"                                  > 2 s g S I ~ ~ 8.8.8.6.~ Q W K J F F F F K J K Q ~ 6.8.8.8.8.Q L S g 5 ; ; $ O                           ",
"                            5 f J [ 8.8.8.^ U k g 2 , * % & # o O                 $ # $ - < 2 g k I ^ 8.8.8.Q J d 2 - $                     ",
"                      s f L 8.w.w.~ J g 5 & & # $ X O                                             ; , 2 A U 7.0.0.7.K d , *                 ",
"                    z ~ w.y.8.W j , # X o                                                               O & 2 z [ q.y.q.K g < $             ",
"              4 k @.u.u.~ j 3 - # #                                                                         X + $ < x 8.H.r.[ j 2 -         ",
"          6 d W r.D.0.x 0 %                                                                                     . @ , 9 Q y.D.0.G 9         ",
"        5 k [ T.U.[ 5                                                                                                 # 3 z 8.J.u.W s       ",
"      2 F 0.Q.U.E 8                                                                                                     O $ g 9.Q.J.Q p     ",
"    < x q.'.J.S 7                                       # % * : , * , > > > - - - % %                                     $ & j 9.Q.S.W p   ",
"    p Q D.].q.5                           # % - 3 2 e Z A P P R O.O.@.+.+.+.+.] E T H Z z w 8 3 > -                           < J U.!.9.k < ",
"    d 7.'.'.] 2                   # - > 2 e D T %.e.Z.Y.^./.<X<X<X2X2X1X1X1XwX<X)././.^.Y.Z.$.O.T Z e 3 * *                   $ j t.qXr.A 5 ",
"  5 k 0.qXQ.W ,             - - 4 ! R $.A.^.<XwXgXgX2X;XoX+X+XXX%X+X*X|.|.|.OX+XOX0X9XeXsX2X2XuXwX/.Y.C.@.H y 2 *             = g y.qXt.G s ",
"    k #.'.'.[ 1         > 2 z E $.~.).1X3X:X#XE.,XhXE.I.z.z.h.h.j.j.j.d.3.3.3.d.x.L.%X4X4X4X-X5X5X6X6X1X,X~.Z.#.P e < ;       < F S.qXr.J   ",
"    s Q Q.].y.w >   3 2 A %.Y.).wX>X:X|.L.h.d.3.N.W.4.:.:.*. .{ } } _ ) / / ) { -.,.h.x.n.}..XXX*X%X%X+XOX:X6X1X^.A.' z 3 > * e @.Q.!.7.F   ",
"      A q.].{.q.H A R G._.dX8X-X|.f.p.<.,.;.*..._ ) B b C C n h r r r 9 9 9 9 t n V _ ..-.=.;.<.i.f.k.M.m.B.R.oX>XeXeX^.$.P H @.Q.].t.G     ",
"      d W t.[.{.K.K.tXfX8X-XR.L.x.a.;.&...( V b c r 9 8 1 1 1 1 1 , , - % & - 3 0 9 r u c n b b (  .-.<.s.x.B.B.}.R.E.<XaX{.(.tXrXQ.Q       ",
"        z 9.~.VXBXNXnXsX-X|.z.g.s.>.| ( / c t r 0 , - ; = = * % # O O O O O O # * % , , 1 1 9 r u M B ) ..;.1.i.p.k.j.Y.cXNXBXNXwXr.D       ",
"        z o.~.nXBXBXBXfX:XR.g.>.=.( / C c t 9 2 , - $ + # + O + o @ X @ X X X o X O # $ $ $ , 1 8 w y N C ( ..=.i.l.R.wXVXBXBXBXaXe.m       ",
"          G.cXBXnXmXBXBXxXeXI.4.} Y N r 9 0 1 > % $ $ @ O X X @ . . . . . o @ @ @ O + O # # $ & - , 0 9 u B ` 5.I.wXxXBXNXxXjXnXzX~.E 9     ",
"        e.MXbXvXkXjXkXzXxXVXhX/.A.o.Y u a 1 & % $ O + @ . @ @ . . @ . . @ @ + @ o o O + @ $ $ $ & 1 9 u Y o.C.^.hXxXNXvXfX1XW.1XlXaX2.N     ",
"      R Y.lXbXdX8X7X;X:X:XqXwXhXwXqXU.r.O.D a 0 , * + X @ @ @ @ o O X @ X X @ X X X o # # # , 9 d K [ r.T.wXhXhXhXpX1XwX5X+XR.R.2XlX^.' y   ",
"    z $.iXbXkX>X&X$Xb.j.d.4.4.j.I.T.!.'.].Q.U.t.0.Q G z j w 5 1 1 1 < 2 < 2 < 2 s s j A J W 9.t.U.!.].rXqXW.W.I.N.N.L.}..X XB.j.`.lXiX2.i   ",
"  2 i Z.kXbXyX@XP.M.l.<.>.&.&.} ` ` ` ` [ 9.0.r.t.u.D.U.U.U.D.F.S.S.F.F.S.S.H.F.F.D.D.D.U.F.F.t.r.0.o.o.X.X. .>.<.k.c.c.M.b.x.d.I.dXkXZ.P q ",
"  8 D G.lXbXyXOXm.M.p.>.| } ) b M l x h h h d g k S J K Q ~ O.~ 7.8.8.8.8.8.8.7.6.Q W W K F m x N l N v Y ) } >.g.x.M.m.n.n.x.d.E.jXkXG.P 5 ",
"  p D Z.jXbXdX@XP.m.z.<.-.} V b v y w 9 0 1 , ; - 7 7 7 6 6 5 5 5 5 5 5 5 5 5 2 5 2 6 < , 7 6 6 < 8 9 u M V  .<.z.n. X$X*XXXL.j.E.zXdXC.H 2 ",
"  2 x 2.2XbXvX9X&X$Xb.s.>.&.( / B c l a 8 9 0 3 , % $ + + + # # # # # $ * & # # $ # $ $ $ ; < > 2 8 w u b / &.a.c.P.*X4X4X4XOXE.uXvX<X#.z   ",
"  , w ' ~.mXbXyX&X*Xm.M.f.<.&..._ Y M l h 8 2 1 > & & $ $ $ # O O # O O O O $ + $ $ & , , 1 0 9 r l N B / ..=.p.k.n. X%X&X%X+X;XkXvXT.' y   ",
"  - 2 D e.MXmXkX9X&XP.P.M.z.s.<.=...V N u 9 8 1 , , , , & & & & $ $ & $ & & = & % , 1 3 0 9 u c N B V { *.<.a.g.z.b.v.v.P.|.&XdXvXiX$.m 9   ",
"    > 9 T Z.iXvXvXyX5X&X*X$XP.M.f.;.) B m u r r 9 9 9 0 0 1 1 , , , 1 1 1 1 3 1 1 0 9 9 u v b / ( _ } ;.a.M.P..X.Xn.b.z.h.E.sXzXiXV.H 8     ",
"      1 y Y 2._.lXbXjX3X5X4X&X$XB.1.N.5.} ) B B B M c u u y r r r r l l l l h h u N v V ) { &.=.;.,.3.d.z.m.*X6X4X$XL.E.3XjXlX~.$.P y       ",
"        , 9 D $.K.aXvXjXdX7X%XP.c.B.XXR.1.;.&.| } _ ) / V B C b b C V V V V b Y b ) ..&.>.<.f.k.x.}.+X@X*XP.%X5X5X-X,XdXlXiXK.+.H           ",
"          - 5 Z ' Z.2XlXvXjX7XOXB.B.}.B.x.k.f.s.<.<.>.=.&.&.&.&.&.*.*.;.-.-.&.&.-.:.<.s.x.v. X.X*X4X9X9X5XOXoX;X2XdXlXjX).C.' D             ",
"              3 w D +.Z._.cXlXkXeX&XoXR.}. Xm.m.m.n.B.c.l.f.g.z.l.k.z.b.v.v.M.c.M.b.L.OX6X9X5X4X5X9X8XsX2X,X2XaXzXjX_.Z.E D                 ",
"                  q i Y #.V.~.tXfXjXyX3X:XoX+XOX+X&X&X%X|. X X XXX*X*X%X%X*X$X$X*X%X&X5XyXyX>X5X>X3XyXjXjXkXjXpX(.G.%.G                     ",
"                      8 y z R q.G./.aXfXjXfX8X1X3X7X7X5X@X@X+X@X&X&X&X4X&X+XOX+X@X&X>X7XyXpX2XuXyXkXkXjXaX(.G.2.'                           ",
"                            q w v T +.V.G.(.[.aXjXzXkXjXdXsXsX8X9X8X9X8X8X8X1X8X8XyXfXzXzXzXkXdXpX(.G.e.+.T                                 ",
"                                , 3 3 q i D T O.#.V.Z.G.~.(._._.tX_.tXtXiXiX_.).(.(.~.G.Z.2.+.' T D i e                                     ",
"                                      - - 3 0 0 w i z D H T T E R R O.O.O.R R R T P H D i i w q 0                                           ",
"                                                          0 8 9 w 9 9 w     8 2 3 3 2 >                                                     "
};
